<svg id="Layer_1" xmlns="http://www.w3.org/2000/svg" viewBox="-639 210.3 319.4 480.7"><style>.st0{fill:#ff560b}.st1{fill:#f16541}.st2{fill:#e1e1e1}.st3{fill:#8f8e8e}.st4{fill:#f1f2ee}.st5{fill:#f1f1f2}.st6{fill:#929497}</style><path class="st0" d="M-382.2 628.3h-180.4c-4 0-7.2-4.2-7.2-9.4V277.4c0-5.2 3.2-9.4 7.2-9.4h180.4c4 0 7.2 4.2 7.2 9.4v341.5c0 5.2-3.2 9.4-7.2 9.4z"/><path class="st1" d="M-463.4 613.5c0 5-4.1 8.3-9 8.3s-9-4-9-9 4.1-9 9-9 9 4.8 9 9.7zM-456.5 287.9h-31.7c-.1 0-.3-.1-.3-.3v-2.4c0-.1.1-.3.3-.3h31.7c.1 0 .3.1.3.3v2.4c-.1.1-.2.3-.3.3z"/><ellipse class="st1" cx="-451.3" cy="286.4" rx="1.1" ry="1.5"/><path class="st2" d="M-561.9 298.8H-383v298.8h-178.9z"/><g><path class="st3" d="M-383 319.4s-35.7-20.4-35.7-69l35.7-13.3v82.3zM-383 319.4s35.7-20.4 35.7-69l-35.7-13.3v82.3z"/><g><path class="st3" d="M-383 319.4s-35.7-20.4-35.7-69l35.7-13.3v82.3zM-383 319.4s35.7-20.4 35.7-69l-35.7-13.3v82.3z"/></g><path class="st2" d="M-359.9 268.7l-3.7-5.4-22.6 15.3-9.9-10.2-4.7 4.5 13.7 14.1z"/></g><g><path class="st2" d="M-567.9 547.7h-12.8c-12.1 0-21.9 9.8-21.9 21.9v20.5h10.6v-20.5c0-6.3 5.1-11.3 11.3-11.3h12.8v-10.6z"/><path class="st4" d="M-567.9 547.7h12.8c12.1 0 21.9 9.8 21.9 21.9v20.5h-10.6v-20.5c0-6.3-5.1-11.3-11.3-11.3h-12.8v-10.6z"/><path class="st2" d="M-567.9 547.7h-12.8c-12.1 0-21.9 9.8-21.9 21.9v20.5h10.6v-20.5c0-6.3 5.1-11.3 11.3-11.3h12.8v-10.6z"/><path class="st3" d="M-567.9 547.7h12.8c12.1 0 21.9 9.8 21.9 21.9v20.5h-10.6v-20.5c0-6.3-5.1-11.3-11.3-11.3h-12.8v-10.6z"/><g><path class="st2" d="M-607.2 588.6h39.3v61.7h-39.3z"/><path class="st4" d="M-567.9 588.6h39.3v61.7h-39.3z"/><g><path class="st5" d="M-607.2 588.6h39.3v61.7h-39.3zM-567.9 588.6h39.3v61.7h-39.3z"/></g></g><circle class="st3" cx="-567.9" cy="619.5" r="15.9"/><path class="st3" d="M-562.1 616.3c0-3.2-2.6-5.8-5.8-5.8-3.2 0-5.8 2.6-5.8 5.8 0 2.5 1.6 4.6 3.8 5.4v4.7c0 1.1.9 2 2 2s2-.9 2-2v-4.7c2.2-.8 3.8-2.9 3.8-5.4z"/></g><path class="st5" d="M-473.8 448.1c4.3-6.5 6.8-14.1 6.8-22.2 0-23.4-20.6-42.4-46-42.4s-46 19-46 42.4 20.6 42.4 46 42.4c5.1 0 10-.8 14.6-2.2l31.4 13.2-6.8-31.2z"/><g><path class="st6" d="M-424.5 363.5c0-7.6-6.2-13.8-13.8-13.8v-11.8c14.1 0 25.5 11.4 25.5 25.5 0 17.4-25.5 51.7-25.5 51.7v-38c7.6.2 13.8-6 13.8-13.6z"/><path class="st6" d="M-463.7 361.7c.9-13.3 12-23.7 25.4-23.7v11.8c-6.3 0-11.6 4.2-13.2 10-.3 1.2-.5 2.5-.5 3.8 0 2 .4 3.9 1.2 5.6 2.1 4.8 6.9 8.2 12.6 8.2v38s-23.9-31-25.5-49.9c0-.6-.1-1.3-.1-1.9 0-.7 0-1.3.1-1.9z"/></g><g><path class="st2" d="M-450.5 653.6c-1.3 0-2.4 1.1-2.4 2.4v2.3h4.8V656c0-1.4-1.1-2.4-2.4-2.4z"/><path class="st2" d="M-443.9 642.2h-56.8c-5.1 0-9.2 4.2-9.2 9.3v16.3c0 5.1 4.2 9.2 9.2 9.2h56.8c5.1 0 9.3-4.2 9.3-9.2v-16.3c0-5.2-4.2-9.3-9.3-9.3zm-45.9 19.9l2.2 2.4-3.8 2.9-1.6-2.9c-.2-.4-.6-1.2-1.1-2.4-.6 1.3-.9 2.1-1.1 2.4l-1.6 2.9-4-2.9 2.4-2.4c.7-.7 1.3-1.2 2-1.7-.7-.1-1.5-.2-2.6-.4l-3.3-.5 1.5-4.5 3 1.3c.3.1 1.1.6 2.3 1.3-.3-1.2-.4-2.1-.5-2.7l-.4-3.2h4.7l-.4 3.2c-.1.8-.3 1.7-.5 2.7.5-.3.9-.5 1.1-.6.6-.3 1.1-.6 1.4-.7l3-1.4 1.5 4.5-3.3.7c-.6.1-1.5.2-2.7.2l1.8 1.8zm21.7 0l2.2 2.4-3.8 2.9-1.6-2.9c-.2-.4-.6-1.2-1.1-2.4-.6 1.3-.9 2.1-1.1 2.4l-1.6 2.9-3.9-2.9 2.4-2.4c.7-.7 1.3-1.2 2-1.7-.7-.1-1.5-.2-2.6-.4l-3.3-.5 1.5-4.5 3 1.3c.3.1 1.1.6 2.3 1.3-.3-1.2-.4-2.1-.5-2.7l-.4-3.2h4.7l-.4 3.2c-.1.8-.3 1.7-.5 2.7.5-.3.9-.5 1.1-.6.6-.3 1-.6 1.4-.7l3-1.4 1.5 4.5-3.3.7c-.6.1-1.5.2-2.7.2.6.7 1.3 1.3 1.7 1.8zm24.4 4.1c0 1-.8 1.8-1.8 1.8h-10.1c-1 0-1.8-.8-1.8-1.8v-6.1c0-1 .8-1.8 1.8-1.8h.2V656c0-2.7 2.2-4.8 4.8-4.8s4.8 2.2 4.8 4.8v2.3h.2c1 0 1.8.8 1.8 1.8l.1 6.1z"/></g></svg>