<svg width="149" height="67" viewBox="0 0 149 67" fill="none" xmlns="http://www.w3.org/2000/svg">
<path d="M33.5 67C52.0015 67 67 52.0015 67 33.5C67 14.9985 52.0015 0 33.5 0C14.9985 0 0 14.9985 0 33.5C0 52.0015 14.9985 67 33.5 67Z" fill="#F5F5F5"/>
<g filter="url(#filter0_d_1784:2398)">
<path d="M138.908 19.6099H28.6029C26.3467 19.6099 24.5176 21.4389 24.5176 23.6952V44.1221C24.5176 46.3783 26.3467 48.2074 28.6029 48.2074H138.908C141.164 48.2074 142.993 46.3783 142.993 44.1221V23.6952C142.993 21.4389 141.164 19.6099 138.908 19.6099Z" fill="white"/>
</g>
<path d="M80.8953 26.1465H59.6514C58.2976 26.1465 57.2002 27.2439 57.2002 28.5977C57.2002 29.9514 58.2976 31.0489 59.6514 31.0489H80.8953C82.2491 31.0489 83.3465 29.9514 83.3465 28.5977C83.3465 27.2439 82.2491 26.1465 80.8953 26.1465Z" fill="#FE4D3F" fill-opacity="0.6"/>
<path d="M95.6026 36.7685H59.6514C58.2976 36.7685 57.2002 37.8659 57.2002 39.2197C57.2002 40.5735 58.2976 41.6709 59.6514 41.6709H95.6026C96.9564 41.6709 98.0539 40.5735 98.0539 39.2197C98.0539 37.8659 96.9564 36.7685 95.6026 36.7685Z" fill="#FE4D3F" fill-opacity="0.05"/>
<path d="M50.6951 33.8476C50.6951 27.3043 45.3908 22 38.8476 22C32.3043 22 27 27.3043 27 33.8476C27 40.3908 32.3043 45.6951 38.8476 45.6951C45.3908 45.6951 50.6951 40.3908 50.6951 33.8476Z" fill="#FE4D3F"/>
<path d="M35.2503 28.0833C34.6545 28.0833 34.1724 28.5708 34.1724 29.1667L34.167 37.8333C34.167 38.4292 34.6491 38.9167 35.2449 38.9167H41.7503C42.3462 38.9167 42.8337 38.4292 42.8337 37.8333V31.3333L39.5837 28.0833H35.2503ZM39.042 31.875V28.8958L42.0212 31.875H39.042Z" fill="white"/>
<defs>
<filter id="filter0_d_1784:2398" x="18.5176" y="16.6099" width="130.476" height="40.5976" filterUnits="userSpaceOnUse" color-interpolation-filters="sRGB">
<feFlood flood-opacity="0" result="BackgroundImageFix"/>
<feColorMatrix in="SourceAlpha" type="matrix" values="0 0 0 0 0 0 0 0 0 0 0 0 0 0 0 0 0 0 127 0" result="hardAlpha"/>
<feOffset dy="3"/>
<feGaussianBlur stdDeviation="3"/>
<feColorMatrix type="matrix" values="0 0 0 0 0 0 0 0 0 0 0 0 0 0 0 0 0 0 0.161 0"/>
<feBlend mode="normal" in2="BackgroundImageFix" result="effect1_dropShadow_1784:2398"/>
<feBlend mode="normal" in="SourceGraphic" in2="effect1_dropShadow_1784:2398" result="shape"/>
</filter>
</defs>
</svg>
